<?xml version="1.0" encoding="utf-8"?>
<!-- Generator: Adobe Illustrator 23.0.1, SVG Export Plug-In . SVG Version: 6.00 Build 0)  -->
<svg version="1.1" id="Layer_1" xmlns="http://www.w3.org/2000/svg" xmlns:xlink="http://www.w3.org/1999/xlink" x="0px" y="0px"
	 viewBox="0 0 500 500" style="enable-background:new 0 0 500 500;" xml:space="preserve">
<style type="text/css">
	.st0{fill:#4F4F4F;}
</style>
<g>
	<path class="st0" d="M267.94,324.34h-35.88c-10.75,0-19.65-8.09-20.93-18.51c-8.23-10.35-48.97-63.23-48.97-95.67
		c0-48.43,39.4-87.84,87.84-87.84s87.84,39.41,87.84,87.84c0,32.44-40.74,85.32-48.97,95.67
		C287.59,316.25,278.69,324.34,267.94,324.34z M250,135.87c-40.96,0-74.29,33.33-74.29,74.29c0,25.34,34.13,72.7,47.28,88.81
		l1.53,1.87v2.41c0,4.15,3.38,7.54,7.54,7.54h35.88c4.15,0,7.54-3.38,7.54-7.54v-2.41l1.53-1.87
		c13.15-16.12,47.29-63.49,47.29-88.81C324.29,169.2,290.96,135.87,250,135.87z"/>
	<path class="st0" d="M272.23,342.11h-44.45c-3.74,0-6.78-3.03-6.78-6.77v-18.42c0-3.74,3.03-6.78,6.78-6.78s6.77,3.03,6.77,6.78
		v11.65h30.9V317.2c0-3.74,3.03-6.77,6.78-6.77c3.74,0,6.77,3.03,6.77,6.77v18.13C279,339.07,275.97,342.11,272.23,342.11z"/>
	<path class="st0" d="M272.23,359.84h-44.45c-3.74,0-6.78-3.03-6.78-6.77v-17.73c0-3.74,3.03-6.77,6.78-6.77s6.77,3.03,6.77,6.77
		v10.95h30.9v-10.95c0-3.74,3.03-6.77,6.78-6.77c3.74,0,6.77,3.03,6.77,6.77v17.73C279,356.8,275.97,359.84,272.23,359.84z"/>
	<path class="st0" d="M263.73,377.68h-27.46c-3.74,0-6.77-3.03-6.77-6.77v-17.84c0-3.74,3.03-6.77,6.77-6.77s6.77,3.03,6.77,6.77
		v11.07h13.91v-11.07c0-3.74,3.03-6.77,6.77-6.77s6.77,3.03,6.77,6.77v17.84C270.5,374.64,267.47,377.68,263.73,377.68z"/>
	<path class="st0" d="M258.94,301.19c-1.87,0-3.39-1.52-3.39-3.39v-55.14h-12.27v55.14c0,1.87-1.52,3.39-3.39,3.39
		c-1.87,0-3.39-1.52-3.39-3.39v-55.14h-5.48c-6.76,0-12.25-5.5-12.25-12.25s5.5-12.25,12.25-12.25c6.76,0,12.25,5.5,12.25,12.25
		v5.48h12.27v-5.48c0-6.76,5.5-12.25,12.25-12.25c6.76,0,12.25,5.5,12.25,12.25s-5.49,12.25-12.25,12.25h-5.48v55.14
		C262.32,299.67,260.81,301.19,258.94,301.19z M262.32,235.89h5.48c3.02,0,5.47-2.46,5.47-5.48c0-3.02-2.45-5.48-5.47-5.48
		c-3.02,0-5.48,2.46-5.48,5.48V235.89z M231.02,224.93c-3.02,0-5.48,2.46-5.48,5.48c0,3.02,2.46,5.48,5.48,5.48h5.48v-5.48
		C236.5,227.39,234.04,224.93,231.02,224.93z"/>
</g>
</svg>
