<?xml version="1.0" encoding="utf-8"?>
<!-- Generator: Adobe Illustrator 23.0.1, SVG Export Plug-In . SVG Version: 6.00 Build 0)  -->
<svg version="1.1" id="Layer_1" xmlns="http://www.w3.org/2000/svg" xmlns:xlink="http://www.w3.org/1999/xlink" x="0px" y="0px"
	 viewBox="0 0 500 500" style="enable-background:new 0 0 500 500;" xml:space="preserve">
<style type="text/css">
	.st0{fill:#4F4F4F;}
</style>
<path class="st0" d="M297.6,367.09c-1.86,0-5.44-0.4-8.44-3.1c-1.81-1.63-3.97-4.64-3.97-9.71V279.7
	c-0.02-3.08-1.02-13.06-13.06-13.06h-44.25c-4.13,0-7.17,1.05-9.3,3.2c-3.66,3.7-3.76,9.74-3.76,9.8v74.65
	c0,5.07-2.16,8.08-3.97,9.71c-3.37,3.04-7.48,3.18-9.04,3.09h-35.1c-9.4,0-13.3-7.91-13.62-13.22l-0.01-0.41V252.3h-12.36
	l-1.01-0.32c-0.79-0.25-2.89-1.1-5.28-3.49c-1.6-1.59-2.48-3.72-2.48-5.99c0-3.63,2.26-6.63,4.15-8.52
	c0.87-0.87,78.2-73.11,101.88-95.23c1.99-1.8,6.99-5.84,12.03-5.84s10.04,4.04,11.96,5.77l0.07,0.07
	c23.68,22.12,101.02,94.36,101.9,95.25c1.87,1.86,4.13,4.87,4.13,8.5c0,2.27-0.88,4.39-2.48,5.99c-2.39,2.39-4.5,3.24-5.29,3.5
	l-1.01,0.32h-12.36l-0.01,101.56c-0.32,5.31-4.21,13.22-13.62,13.22h-35.1C298.03,367.08,297.83,367.09,297.6,367.09z M298.77,354.7
	L298.77,354.7L298.77,354.7z M201.23,354.7L201.23,354.7L201.23,354.7z M298.74,353.52h34.5c0.06-0.15,0.11-0.33,0.15-0.5V249.51
	c0.18-5.34,4.01-10.76,10.76-10.76h5.06c-16.33-15.28-67.36-62.95-96.37-90.05c-0.86-0.76-2.04-1.6-2.84-2.03
	c-0.86,0.47-2.11,1.38-2.86,2.05c-28.92,27.01-79.93,74.67-96.34,90.03h5.06c6.75,0,10.57,5.42,10.75,10.52l0,103.82
	c0.03,0.1,0.08,0.27,0.14,0.41l34.51,0.02V279.7c-0.01-1.11,0.1-11.73,7.68-19.4c4.74-4.79,11.11-7.21,18.93-7.21h44.25
	c7.82,0,14.19,2.43,18.93,7.21c7.59,7.66,7.7,18.28,7.68,19.47V353.52z"/>
</svg>
