<?xml version="1.0" encoding="utf-8"?>
<!-- Generator: Adobe Illustrator 23.0.1, SVG Export Plug-In . SVG Version: 6.00 Build 0)  -->
<svg version="1.1" id="Layer_1" xmlns="http://www.w3.org/2000/svg" xmlns:xlink="http://www.w3.org/1999/xlink" x="0px" y="0px"
	 viewBox="0 0 500 500" style="enable-background:new 0 0 500 500;" xml:space="preserve">
<style type="text/css">
	.st0{fill:#4F4F4F;}
</style>
<g>
	<path class="st0" d="M349.6,366.01H150.4c-14.46,0-26.22-11.76-26.22-26.22V185.9c0-14.46,11.76-26.22,26.22-26.22H349.6
		c14.46,0,26.23,11.76,26.23,26.22v153.89C375.82,354.24,364.06,366.01,349.6,366.01z M150.4,173.23c-6.99,0-12.67,5.69-12.67,12.67
		v153.89c0,6.99,5.69,12.67,12.67,12.67H349.6c6.99,0,12.68-5.69,12.68-12.67V185.9c0-6.99-5.69-12.67-12.68-12.67H150.4z"/>
	<rect x="130.95" y="186.15" class="st0" width="238.09" height="13.55"/>
	<g>
		<path class="st0" d="M264.31,307.61h-28.62c-0.76,0-1.37-0.61-1.37-1.37v-28.62c0-0.76,0.61-1.37,1.37-1.37h28.62
			c0.76,0,1.37,0.61,1.37,1.37v28.62C265.68,306.99,265.07,307.61,264.31,307.61z"/>
		<path class="st0" d="M212.68,307.61h-28.62c-0.76,0-1.37-0.61-1.37-1.37v-28.62c0-0.76,0.61-1.37,1.37-1.37h28.62
			c0.76,0,1.37,0.61,1.37,1.37v28.62C214.06,306.99,213.44,307.61,212.68,307.61z"/>
		<path class="st0" d="M315.94,307.61h-28.62c-0.76,0-1.37-0.61-1.37-1.37v-28.62c0-0.76,0.61-1.37,1.37-1.37h28.62
			c0.76,0,1.37,0.61,1.37,1.37v28.62C317.31,306.99,316.7,307.61,315.94,307.61z"/>
		<path class="st0" d="M264.31,260.88h-28.62c-0.76,0-1.37-0.61-1.37-1.37v-28.62c0-0.76,0.61-1.37,1.37-1.37h28.62
			c0.76,0,1.37,0.61,1.37,1.37v28.62C265.68,260.27,265.07,260.88,264.31,260.88z"/>
		<path class="st0" d="M315.94,260.88h-28.62c-0.76,0-1.37-0.61-1.37-1.37v-28.62c0-0.76,0.61-1.37,1.37-1.37h28.62
			c0.76,0,1.37,0.61,1.37,1.37v28.62C317.31,260.27,316.7,260.88,315.94,260.88z"/>
	</g>
	<g>
		<path class="st0" d="M199.08,133.99h-17.11c-0.87,0-1.57,0.7-1.57,1.57v29.31c0,0.87,0.7,1.57,1.57,1.57h17.11
			c0.87,0,1.57-0.7,1.57-1.57v-29.31C200.66,134.7,199.95,133.99,199.08,133.99z"/>
		<path class="st0" d="M318.02,133.99h-17.11c-0.87,0-1.57,0.7-1.57,1.57v29.31c0,0.87,0.7,1.57,1.57,1.57h17.11
			c0.87,0,1.57-0.7,1.57-1.57v-29.31C319.6,134.7,318.89,133.99,318.02,133.99z"/>
	</g>
</g>
</svg>
