<?xml version="1.0" encoding="utf-8"?>
<!-- Generator: Adobe Illustrator 23.0.1, SVG Export Plug-In . SVG Version: 6.00 Build 0)  -->
<svg version="1.1" id="Layer_1" xmlns="http://www.w3.org/2000/svg" xmlns:xlink="http://www.w3.org/1999/xlink" x="0px" y="0px"
	 viewBox="0 0 500 500" style="enable-background:new 0 0 500 500;" xml:space="preserve">
<style type="text/css">
	.st0{fill:#4F4F4F;}
</style>
<g>
	<path class="st0" d="M378.45,361.4c-2.1,0-4.13-0.98-5.43-2.72c-32.02-42.88-119.02,1.51-119.9,1.96c-1.95,1.01-4.29,1.01-6.24,0
		c-0.88-0.45-87.87-44.84-119.9-1.96c-1.75,2.34-4.8,3.29-7.57,2.38c-2.77-0.92-4.64-3.51-4.64-6.43V166.81
		c0-1.46,0.47-2.88,1.35-4.05c35.42-47.43,116.63-11.82,133.87-3.51c17.23-8.31,98.46-43.93,133.88,3.51
		c0.87,1.17,1.35,2.59,1.35,4.05v187.81c0,2.92-1.87,5.51-4.64,6.43C379.88,361.29,379.16,361.4,378.45,361.4z M170.82,326.42
		c33.56,0,68.54,15.52,79.18,20.64c15.48-7.46,82.51-36.91,121.67-8.56V169.15c-33.09-40.04-117.69,3.23-118.55,3.68
		c-1.96,1.01-4.28,1.01-6.24,0c-0.86-0.45-85.5-43.64-118.55-3.68v169.35C140.58,329.63,155.55,326.42,170.82,326.42z"/>
	<path class="st0" d="M250,361.4H109.59c-3.74,0-6.78-3.03-6.78-6.77v-182.9c0-3.74,3.03-6.77,6.78-6.77h11.97v13.55h-5.19v169.35
		H250V361.4z"/>
	<path class="st0" d="M390.41,361.4H250v-13.55h133.64V178.5h-5.19v-13.55h11.97c3.74,0,6.77,3.03,6.77,6.77v182.9
		C397.19,358.36,394.16,361.4,390.41,361.4z"/>
	<rect x="243.22" y="166.81" class="st0" width="13.55" height="187.81"/>
</g>
</svg>
